<svg width="64" height="64" viewBox="0 0 64 64" fill="none" xmlns="http://www.w3.org/2000/svg">
<path d="M50.052 18H11.7273C8.55242 18 5.97864 20.6863 5.97864 24V48C5.97864 51.3137 8.55242 54 11.7273 54H50.052C53.2269 54 55.8007 51.3137 55.8007 48V24C55.8007 20.6863 53.2269 18 50.052 18Z" stroke="#266DD3" stroke-width="4" stroke-linejoin="round"/>
<path d="M49.8221 17.9991V14.2487C49.8218 13.3288 49.6255 12.4204 49.2474 11.5882C48.8692 10.756 48.3184 10.0205 47.6343 9.43418C46.9502 8.8479 46.1496 8.42527 45.2897 8.19647C44.4298 7.96766 43.5317 7.93831 42.6596 8.1105L10.8823 13.7299C9.50233 14.0023 8.25739 14.7652 7.3622 15.8869C6.467 17.0086 5.97769 18.4188 5.97864 19.8743V26" stroke="#266DD3" stroke-width="4" stroke-linejoin="round"/>
<path d="M44.8399 40C44.0516 40 43.281 39.7654 42.6255 39.3259C41.9701 38.8864 41.4592 38.2616 41.1575 37.5307C40.8559 36.7998 40.7769 35.9956 40.9307 35.2196C41.0845 34.4437 41.4641 33.731 42.0215 33.1716C42.579 32.6122 43.2891 32.2312 44.0623 32.0769C44.8355 31.9225 45.6369 32.0017 46.3652 32.3045C47.0935 32.6072 47.716 33.1199 48.1539 33.7777C48.5919 34.4355 48.8257 35.2089 48.8257 36C48.8257 37.0609 48.4057 38.0783 47.6583 38.8284C46.9108 39.5786 45.897 40 44.8399 40Z" fill="#266DD3"/>
</svg>
