<svg width="36" height="36" viewBox="0 0 36 36" fill="none" xmlns="http://www.w3.org/2000/svg">
<path d="M31.0592 15.3955C30.7149 13.6825 30.0362 12.0543 29.0623 10.6041L30.7651 8.14675L27.8585 5.23765L25.3965 6.94204C23.9485 5.96527 22.3212 5.2859 20.6091 4.94332L20.0689 2H15.9654L15.4251 4.94332C13.7128 5.2859 12.0857 5.96527 10.6378 6.94204L8.15514 5.21028L6.6848 6.6614L5.23493 8.11937L6.93092 10.5767C5.96174 12.0287 5.28571 13.6564 4.9408 15.3681L2 15.9294V20.0365L4.9408 20.5703C5.28571 22.282 5.96174 23.9098 6.93092 25.3618L5.23493 27.8532L6.6848 29.3113L8.15514 30.7624L10.6172 29.0648C12.0669 30.0368 13.6936 30.7136 15.4045 31.0567L15.9449 34H20.0483L20.5885 31.0567C22.2995 30.7136 23.9263 30.0368 25.376 29.0648L27.8381 30.7624L30.7446 27.8532L29.0623 25.396C30.0362 23.9458 30.7149 22.3175 31.0592 20.6045L34 20.0706V15.9637L31.0592 15.3955ZM17.9965 25.9231C16.4275 25.9217 14.894 25.4547 13.5903 24.581C12.2863 23.7075 11.2705 22.4665 10.6714 21.0151C10.0722 19.5637 9.91638 17.9671 10.2239 16.4271C10.5313 14.8871 11.2881 13.473 12.3986 12.3636C13.509 11.2541 14.9233 10.4991 16.4625 10.194C18.0015 9.88898 19.5965 10.0476 21.0457 10.6498C22.4948 11.252 23.7329 12.2708 24.6035 13.5773C25.4741 14.8838 25.9381 16.4193 25.9367 17.9898C25.9367 19.0327 25.7312 20.0654 25.332 21.0289C24.9329 21.9922 24.3478 22.8674 23.6103 23.6043C22.8728 24.3411 21.9974 24.9252 21.0342 25.3231C20.0708 25.7209 19.0386 25.9248 17.9965 25.9231Z" stroke="black" stroke-width="2.5" stroke-linecap="round" stroke-linejoin="round"/>
</svg>
