<svg width="64" height="64" viewBox="0 0 64 64" fill="none" xmlns="http://www.w3.org/2000/svg">
<path d="M49.0586 23.75C48.3095 24.4969 47.2965 24.9161 46.2405 24.9161C45.1846 24.9161 44.1715 24.4969 43.4225 23.75L40.113 20.4288C39.3681 19.6771 38.9499 18.6601 38.9499 17.6C38.9499 16.5399 39.3681 15.5229 40.113 14.7713L47.6038 7.25001C47.6186 7.2357 47.6297 7.21793 47.636 7.19828C47.6423 7.17864 47.6436 7.15774 47.6399 7.13744C47.6362 7.11714 47.6276 7.09807 47.6148 7.08194C47.6019 7.06581 47.5853 7.05312 47.5664 7.04501C42.7312 4.96501 36.4623 6.02501 32.4815 9.99126C28.6726 13.785 28.4559 19.4913 29.8509 24.4713C30.0491 25.1791 30.0487 25.9282 29.8495 26.6358C29.6504 27.3434 29.2604 27.982 28.7225 28.4813L7.97158 47.5C7.35935 48.0448 6.86461 48.7094 6.51779 49.4532C6.17098 50.1969 5.9794 51.004 5.95485 51.8247C5.9303 52.6455 6.07329 53.4626 6.37503 54.2259C6.67677 54.9892 7.13089 55.6824 7.70946 56.2631C8.28802 56.8437 8.97882 57.2994 9.73937 57.6023C10.4999 57.9051 11.3141 58.0486 12.132 58.0239C12.9499 57.9993 13.754 57.807 14.4951 57.459C15.2362 57.1109 15.8985 56.6144 16.4413 56L35.6054 35.125C36.0965 34.5943 36.7223 34.2077 37.4157 34.0066C38.109 33.8056 38.8438 33.7977 39.5413 33.9838C44.4662 35.3075 50.0712 35.0588 53.8303 31.335C57.8771 27.335 58.7502 20.265 56.7885 16.2188C56.7796 16.2011 56.7668 16.1857 56.7509 16.174C56.735 16.1623 56.7166 16.1546 56.6971 16.1514C56.6777 16.1482 56.6577 16.1497 56.639 16.1558C56.6202 16.1618 56.6031 16.1723 56.5892 16.1863L49.0586 23.75Z" stroke="#266DD3" stroke-width="4" stroke-miterlimit="10" stroke-linecap="round"/>
<path d="M11.9572 54C13.0579 54 13.9501 53.1046 13.9501 52C13.9501 50.8954 13.0579 50 11.9572 50C10.8566 50 9.96436 50.8954 9.96436 52C9.96436 53.1046 10.8566 54 11.9572 54Z" fill="#266DD3"/>
</svg>
