<svg width="64" height="64" viewBox="0 0 64 64" fill="none" xmlns="http://www.w3.org/2000/svg">
<path d="M42 8H46C47.5913 8 49.1174 8.63214 50.2426 9.75736C51.3679 10.8826 52 12.4087 52 14V54C52 55.5913 51.3679 57.1174 50.2426 58.2426C49.1174 59.3679 47.5913 60 46 60H18C16.4087 60 14.8826 59.3679 13.7574 58.2426C12.6321 57.1174 12 55.5913 12 54V14C12 12.4087 12.6321 10.8826 13.7574 9.75736C14.8826 8.63214 16.4087 8 18 8H22" stroke="#266DD3" stroke-width="4" stroke-linejoin="round"/>
<path d="M38.7332 4H25.2661C23.4623 4 22 5.46235 22 7.26625V8.73375C22 10.5377 23.4623 12 25.2661 12H38.7332C40.5371 12 41.9994 10.5377 41.9994 8.73375V7.26625C41.9994 5.46235 40.5371 4 38.7332 4Z" stroke="#266DD3" stroke-width="4" stroke-linejoin="round"/>
</svg>
