<svg width="58" height="30" viewBox="0 0 58 30" fill="none" xmlns="http://www.w3.org/2000/svg">
<path d="M47.081 13.7675C46.9734 13.2857 46.7613 12.8278 46.457 12.4199L46.9891 11.7288L46.0808 10.9106L45.3114 11.3899C44.8589 11.1152 44.3504 10.9242 43.8153 10.8278L43.6465 10H42.3642L42.1953 10.8278C41.6603 10.9242 41.1518 11.1152 40.6993 11.3899L39.9235 10.9029L39.464 11.311L39.0109 11.7211L39.5409 12.4122C39.238 12.8206 39.0268 13.2784 38.919 13.7598L38 13.9177V15.0728L38.919 15.2229C39.0268 15.7043 39.238 16.1621 39.5409 16.5705L39.0109 17.2712L39.464 17.6813L39.9235 18.0894L40.6929 17.612C41.1459 17.8854 41.6543 18.0757 42.1889 18.1722L42.3578 19H43.6401L43.8089 18.1722C44.3436 18.0757 44.852 17.8854 45.305 17.612L46.0744 18.0894L46.9827 17.2712L46.457 16.5801C46.7613 16.1722 46.9734 15.7143 47.081 15.2325L48 15.0823V13.9273L47.081 13.7675ZM42.9989 16.7284C42.5086 16.728 42.0294 16.5966 41.622 16.3509C41.2145 16.1052 40.897 15.7562 40.7098 15.348C40.5226 14.9398 40.4739 14.4907 40.57 14.0576C40.666 13.6245 40.9025 13.2268 41.2496 12.9148C41.5966 12.6027 42.0385 12.3904 42.5195 12.3046C43.0005 12.2188 43.4989 12.2634 43.9518 12.4328C44.4046 12.6021 44.7915 12.8887 45.0636 13.2561C45.3357 13.6236 45.4807 14.0554 45.4802 14.4971C45.4802 14.7905 45.416 15.0809 45.2913 15.3519C45.1665 15.6228 44.9837 15.869 44.7532 16.0762C44.5227 16.2834 44.2492 16.4477 43.9482 16.5596C43.6471 16.6715 43.3246 16.7288 42.9989 16.7284Z" stroke="#266DD3" stroke-linecap="round" stroke-linejoin="round"/>
<path d="M20.0841 23.6748H9.18961L7.44316 28.7539H0L10.5618 0H18.795L29.3568 28.7539H21.8305L20.0841 23.6748ZM18.2545 18.2681L14.6368 7.74144L11.0608 18.2681H18.2545Z" fill="#266DD3"/>
<path d="M29 14.6636C29 11.8238 29.6237 9.29792 30.8712 7.08608C32.1186 4.84694 33.8512 3.11296 36.0689 1.88416C38.315 0.628058 40.8515 0 43.6791 0C47.1434 0 50.11 0.90112 52.5776 2.70336C55.0439 4.5056 56.6942 6.9632 57.5258 10.0762H49.7084C49.1263 8.87466 48.2934 7.9599 47.2122 7.33184C46.1597 6.70378 44.9538 6.38976 43.5959 6.38976C41.4051 6.38976 39.6313 7.1407 38.2721 8.64256C36.9145 10.1444 36.2353 12.1515 36.2353 14.6636C36.2353 17.1759 36.9145 19.1829 38.2721 20.6848C39.6313 22.1867 41.4051 22.9376 43.5959 22.9376C44.9538 22.9376 46.1597 22.6236 47.2122 21.9955C48.2934 21.3675 49.1263 20.4527 49.7084 19.2512H57.5258C56.6942 22.3641 55.0439 24.8217 52.5776 26.624C50.11 28.3989 47.1434 29.2864 43.6791 29.2864C40.8515 29.2864 38.315 28.672 36.0689 27.4432C33.8512 26.1871 32.1186 24.4531 30.8712 22.2412C29.6237 20.0294 29 17.5036 29 14.6636Z" fill="black"/>
</svg>
