<svg width="160" height="22" viewBox="0 0 160 22" fill="none" xmlns="http://www.w3.org/2000/svg">
<g clip-path="url(#clip0_136_15)">
<path d="M14.4344 17.8371H6.85566L5.64074 21.3704H0.462891L7.81024 1.36768H13.5377L20.885 21.3704H15.6493L14.4344 17.8371ZM13.1616 14.0759L10.645 6.75303L8.15735 14.0759H13.1616Z" fill="white"/>
<path d="M27.9807 1.36768V13.3351C27.9807 14.5318 28.2797 15.4532 28.8775 16.099C29.4753 16.7449 30.3528 17.0678 31.5099 17.0678C32.6669 17.0678 33.554 16.7449 34.1711 16.099C34.7882 15.4532 35.0968 14.5318 35.0968 13.3351V1.36768H40.0432V13.3066C40.0432 15.0923 39.6575 16.6025 38.8861 17.8371C38.1147 19.0719 37.0733 20.0027 35.7621 20.6295C34.47 21.2564 33.0236 21.5698 31.4231 21.5698C29.8225 21.5698 28.3857 21.2659 27.1129 20.658C25.8595 20.0312 24.8663 19.1004 24.1336 17.8656C23.4008 16.6119 23.0343 15.0923 23.0343 13.3066V1.36768H27.9807Z" fill="white"/>
<path d="M58.1245 1.36768V5.27134H52.7441V21.3704H47.7977V5.27134H42.4174V1.36768H58.1245Z" fill="white"/>
<path d="M86.025 6.31472L86.0263 6.31244C86.8492 4.83538 87.9875 3.69677 89.4477 2.88772L89.4494 2.88676C90.9301 2.05868 92.6092 1.63965 94.4994 1.63965C96.8181 1.63965 98.775 2.24102 100.395 3.42402C101.845 4.48348 102.866 5.88613 103.46 7.64915H98.9972C98.5613 6.86565 97.9653 6.24804 97.2109 5.80919C96.3937 5.32217 95.4652 5.0847 94.4415 5.0847C92.789 5.0847 91.4159 5.6577 90.3673 6.81636C89.3211 7.97374 88.8211 9.50003 88.8211 11.3404C88.8211 13.1809 89.3209 14.707 90.3671 15.8643C91.4157 17.0231 92.789 17.5962 94.4415 17.5962C95.4652 17.5962 96.3937 17.3588 97.2109 16.8717C97.9653 16.4329 98.5613 15.8153 98.9972 15.0318H103.46C102.867 16.7942 101.845 18.1965 100.396 19.2558C98.7765 20.4204 96.8191 21.0128 94.4994 21.0128C92.6087 21.0128 90.9292 20.603 89.4486 19.7937C87.9861 18.9646 86.8474 17.8243 86.025 16.3662C85.2044 14.911 84.7878 13.2404 84.7878 11.3404C84.7878 9.44059 85.2044 7.76987 86.025 6.31472Z" fill="white" stroke="white"/>
<path d="M120.274 17.6744L120.158 17.3371H119.801H112.222H111.866L111.75 17.6745L110.651 20.8704H106.546L113.526 1.86768H118.556L125.535 20.8704H121.374L120.274 17.6744ZM118.529 14.5759H119.23L119.002 13.9134L116.485 6.59047L116.009 5.20663L115.538 6.59225L113.052 13.9152L112.827 14.5759H113.525H118.529Z" fill="white" stroke="white"/>
<path d="M132.935 13.8195V20.8704H128.988V1.86768H136.79C138.335 1.86768 139.615 2.13372 140.648 2.64252L140.651 2.64405C141.711 3.15721 142.479 3.85244 142.981 4.72328L142.983 4.72731C143.495 5.59481 143.753 6.56987 143.753 7.66483C143.753 8.89058 143.401 9.97304 142.694 10.9294L142.69 10.9344C142.015 11.8719 141 12.5574 139.599 12.9694L138.983 13.1507L139.31 13.7036L143.55 20.8704H139.137L135.057 13.5754L134.914 13.3195H134.621H133.435H132.935V13.8195ZM132.935 10.3717V10.8717H133.435H136.501C137.477 10.8717 138.301 10.6376 138.873 10.0762C139.457 9.5224 139.72 8.76051 139.72 7.86429C139.72 6.99769 139.452 6.25846 138.873 5.70934C138.301 5.14795 137.477 4.91381 136.501 4.91381H133.435H132.935V5.41381V10.3717Z" fill="white" stroke="white"/>
<path d="M152.305 4.77134H151.805V5.27134V9.31745V9.81745H152.305H158.429V12.5786H152.305H151.805V13.0786V17.4667V17.9667H152.305H159.297V20.8704H147.858V1.86768H159.297V4.77134H152.305Z" fill="white" stroke="white"/>
<path d="M79.4452 9.45643C79.2215 8.36101 78.7805 7.31984 78.1478 6.39251L79.2541 4.82117L77.3657 2.96095L75.766 4.05082C74.8253 3.42623 73.768 2.9918 72.6556 2.77274L72.3046 0.890625H69.6385L69.2875 2.77274C68.175 2.9918 67.1178 3.42623 66.1771 4.05082L64.564 2.94344L63.6087 3.87136L62.6667 4.80367L63.7686 6.37501C63.139 7.30347 62.6997 8.34432 62.4756 9.43889L60.5649 9.79782V12.4241L62.4756 12.7655C62.6997 13.86 63.139 14.9009 63.7686 15.8294L62.6667 17.4225L63.6087 18.3549L64.564 19.2828L66.1637 18.1973C67.1056 18.8188 68.1625 19.2516 69.2741 19.471L69.6252 21.3531H72.2912L72.6422 19.471C73.7539 19.2516 74.8108 18.8188 75.7527 18.1973L77.3524 19.2828L79.2408 17.4225L78.1478 15.8513C78.7805 14.9239 79.2215 13.8827 79.4452 12.7873L81.3559 12.4459V9.81973L79.4452 9.45643ZM70.9582 16.1883C69.9388 16.1874 68.9424 15.8887 68.0953 15.3301C67.2481 14.7715 66.5882 13.978 66.1989 13.0499C65.8096 12.1218 65.7084 11.1008 65.9081 10.1161C66.1079 9.13133 66.5996 8.22708 67.3211 7.51762C68.0425 6.80816 68.9614 6.32538 69.9615 6.13032C70.9614 5.93525 71.9977 6.03668 72.9393 6.42177C73.8807 6.80686 74.6852 7.45832 75.2509 8.29376C75.8165 9.12919 76.1179 10.1111 76.117 11.1153C76.117 11.7822 75.9835 12.4426 75.7242 13.0587C75.4648 13.6747 75.0847 14.2343 74.6055 14.7055C74.1263 15.1767 73.5576 15.5502 72.9318 15.8046C72.3059 16.059 71.6352 16.1894 70.9582 16.1883Z" fill="white"/>
</g>
<defs>
<clipPath id="clip0_136_15">
<rect width="160" height="22" fill="white"/>
</clipPath>
</defs>
</svg>
